<svg width="61" height="25" viewBox="0 0 61 25" fill="none" xmlns="http://www.w3.org/2000/svg">
<rect width="61" height="25" rx="12.5" fill="#42A1A2"/>
<path d="M10.3058 16.1904L10.906 14.3971H13.6403L14.244 16.1904H15.6503L13.0864 8.9177H11.4599L8.89958 16.1904H10.3058ZM11.2611 13.3389L12.2447 10.4092H12.3016L13.2852 13.3389H11.2611ZM20.74 10.7359H19.3728L18.1157 14.7877H18.0588L16.8053 10.7359H15.4346L17.377 16.1904H18.7975L20.74 10.7359ZM23.0429 16.3005C23.8987 16.3005 24.4101 15.8992 24.6444 15.4411H24.687V16.1904H25.9228V12.5399C25.9228 11.0981 24.7474 10.6649 23.7069 10.6649C22.5599 10.6649 21.6792 11.1762 21.3951 12.1705L22.5954 12.341C22.7233 11.9681 23.0855 11.6485 23.714 11.6485C24.3106 11.6485 24.6373 11.9539 24.6373 12.4901V12.5115C24.6373 12.8808 24.2503 12.8985 23.2879 13.0015C22.2297 13.1151 21.2176 13.4312 21.2176 14.6599C21.2176 15.7323 22.0024 16.3005 23.0429 16.3005ZM23.3767 15.3559C22.8405 15.3559 22.4569 15.1109 22.4569 14.6386C22.4569 14.145 22.8866 13.939 23.4619 13.8573C23.7993 13.8112 24.474 13.7259 24.6409 13.591V14.2338C24.6409 14.841 24.1508 15.3559 23.3767 15.3559ZM27.2155 16.1904H28.501V10.7359H27.2155V16.1904ZM27.8618 9.96174C28.2701 9.96174 28.6039 9.64924 28.6039 9.26571C28.6039 8.87864 28.2701 8.56614 27.8618 8.56614C27.4498 8.56614 27.116 8.87864 27.116 9.26571C27.116 9.64924 27.4498 9.96174 27.8618 9.96174ZM31.1084 8.9177H29.8229V16.1904H31.1084V8.9177ZM33.9999 16.3005C34.8557 16.3005 35.3671 15.8992 35.6015 15.4411H35.6441V16.1904H36.8799V12.5399C36.8799 11.0981 35.7044 10.6649 34.664 10.6649C33.5169 10.6649 32.6363 11.1762 32.3522 12.1705L33.5525 12.341C33.6803 11.9681 34.0425 11.6485 34.6711 11.6485C35.2677 11.6485 35.5944 11.9539 35.5944 12.4901V12.5115C35.5944 12.8808 35.2073 12.8985 34.2449 13.0015C33.1867 13.1151 32.1746 13.4312 32.1746 14.6599C32.1746 15.7323 32.9594 16.3005 33.9999 16.3005ZM34.3337 15.3559C33.7975 15.3559 33.414 15.1109 33.414 14.6386C33.414 14.145 33.8436 13.939 34.4189 13.8573C34.7563 13.8112 35.431 13.7259 35.5979 13.591V14.2338C35.5979 14.841 35.1079 15.3559 34.3337 15.3559ZM38.2293 16.1904H39.4935V15.3311H39.5681C39.7705 15.7288 40.1931 16.2863 41.1306 16.2863C42.4161 16.2863 43.3784 15.2671 43.3784 13.4703C43.3784 11.6521 42.3877 10.6649 41.127 10.6649C40.1647 10.6649 39.7634 11.2437 39.5681 11.6379H39.5148V8.9177H38.2293V16.1904ZM39.49 13.4632C39.49 12.4049 39.9445 11.7195 40.7719 11.7195C41.6277 11.7195 42.0681 12.4475 42.0681 13.4632C42.0681 14.4859 41.6206 15.2316 40.7719 15.2316C39.9516 15.2316 39.49 14.5214 39.49 13.4632ZM45.7568 8.9177H44.4713V16.1904H45.7568V8.9177ZM49.4935 16.297C50.7648 16.297 51.6384 15.6755 51.8657 14.7274L50.6654 14.5924C50.4914 15.0541 50.0652 15.2955 49.5113 15.2955C48.6803 15.2955 48.1299 14.7487 48.1192 13.8147H51.9189V13.4205C51.9189 11.5065 50.7684 10.6649 49.426 10.6649C47.8635 10.6649 46.8444 11.8119 46.8444 13.4951C46.8444 15.2068 47.8493 16.297 49.4935 16.297ZM48.1228 12.9482C48.1618 12.2522 48.6767 11.6663 49.4438 11.6663C50.1824 11.6663 50.6796 12.2061 50.6867 12.9482H48.1228Z" fill="white"/>
</svg>
