<svg width="61" height="25" viewBox="0 0 61 25" fill="none" xmlns="http://www.w3.org/2000/svg">
<rect width="61" height="25" rx="12.5" fill="#8C2AF5"/>
<path d="M17.5006 8.9177H16.1832V16.1904H17.5006V8.9177ZM20.156 12.9944C20.156 12.2061 20.6318 11.7515 21.3101 11.7515C21.9742 11.7515 22.3719 12.1883 22.3719 12.9163V16.1904H23.6574V12.7174C23.661 11.4106 22.9152 10.6649 21.7895 10.6649C20.9728 10.6649 20.4117 11.0555 20.1631 11.6627H20.0992V10.7359H18.8705V16.1904H20.156V12.9944ZM32.086 8.9177V13.559C32.086 14.4717 31.4504 15.1251 30.4525 15.1251C29.4511 15.1251 28.819 14.4717 28.819 13.559V8.9177H27.5015V13.6691C27.5015 15.2316 28.6734 16.3005 30.4525 16.3005C32.2245 16.3005 33.4035 15.2316 33.4035 13.6691V8.9177H32.086ZM39.0898 12.1776C38.9122 11.2544 38.1736 10.6649 36.8952 10.6649C35.5812 10.6649 34.6864 11.3112 34.6899 12.3197C34.6864 13.1151 35.1764 13.6407 36.224 13.8573L37.1544 14.0526C37.6551 14.1627 37.8895 14.3651 37.8895 14.6741C37.8895 15.047 37.4846 15.3275 36.8739 15.3275C36.2844 15.3275 35.9008 15.0718 35.7908 14.5818L34.5372 14.7025C34.697 15.7039 35.5386 16.297 36.8774 16.297C38.241 16.297 39.2034 15.5903 39.207 14.5569C39.2034 13.7792 38.7027 13.3034 37.6729 13.0796L36.7425 12.8808C36.1885 12.7565 35.9683 12.5647 35.9719 12.2487C35.9683 11.8794 36.3767 11.6237 36.9129 11.6237C37.506 11.6237 37.8185 11.9468 37.9179 12.3055L39.0898 12.1776ZM42.6817 16.297C43.953 16.297 44.8266 15.6755 45.0539 14.7274L43.8536 14.5924C43.6796 15.0541 43.2535 15.2955 42.6995 15.2955C41.8685 15.2955 41.3181 14.7487 41.3074 13.8147H45.1072V13.4205C45.1072 11.5065 43.9566 10.6649 42.6143 10.6649C41.0518 10.6649 40.0326 11.8119 40.0326 13.4951C40.0326 15.2068 41.0376 16.297 42.6817 16.297ZM41.311 12.9482C41.3501 12.2522 41.865 11.6663 42.632 11.6663C43.3707 11.6663 43.8678 12.2061 43.8749 12.9482H41.311Z" fill="white"/>
</svg>
