<svg width="61" height="25" viewBox="0 0 61 25" fill="none" xmlns="http://www.w3.org/2000/svg">
<rect width="61" height="25" rx="12.5" fill="#DB2642"/>
<path d="M21.4564 12.5541C21.4564 10.2032 20.0217 8.81827 18.1148 8.81827C16.2043 8.81827 14.7732 10.2032 14.7732 12.5541C14.7732 14.9014 16.2043 16.2899 18.1148 16.2899C20.0217 16.2899 21.4564 14.9049 21.4564 12.5541ZM20.1318 12.5541C20.1318 14.2089 19.3009 15.1073 18.1148 15.1073C16.9322 15.1073 16.0977 14.2089 16.0977 12.5541C16.0977 10.8992 16.9322 10.0008 18.1148 10.0008C19.3009 10.0008 20.1318 10.8992 20.1318 12.5541ZM25.4079 10.7359H24.2751V10.3062C24.2751 9.88006 24.4527 9.64213 24.9321 9.64213C25.1345 9.64213 25.3049 9.6883 25.4115 9.72026L25.6707 8.72594C25.5038 8.66912 25.138 8.57679 24.6941 8.57679C23.746 8.57679 22.9896 9.12012 22.9896 10.221V10.7359H22.1835V11.7302H22.9896V16.1904H24.2751V11.7302H25.4079V10.7359ZM29.1775 10.7359H28.0446V10.3062C28.0446 9.88006 28.2222 9.64213 28.7016 9.64213C28.904 9.64213 29.0745 9.6883 29.181 9.72026L29.4402 8.72594C29.2733 8.66912 28.9076 8.57679 28.4637 8.57679C27.5155 8.57679 26.7591 9.12012 26.7591 10.221V10.7359H25.953V11.7302H26.7591V16.1904H28.0446V11.7302H29.1775V10.7359ZM31.4697 8.9177H30.1842V16.1904H31.4697V8.9177ZM32.7916 16.1904H34.0771V10.7359H32.7916V16.1904ZM33.4379 9.96174C33.8463 9.96174 34.1801 9.64924 34.1801 9.26571C34.1801 8.87864 33.8463 8.56614 33.4379 8.56614C33.026 8.56614 32.6922 8.87864 32.6922 9.26571C32.6922 9.64924 33.026 9.96174 33.4379 9.96174ZM36.6846 12.9944C36.6846 12.2061 37.1604 11.7515 37.8387 11.7515C38.5027 11.7515 38.9005 12.1883 38.9005 12.9163V16.1904H40.186V12.7174C40.1895 11.4106 39.4438 10.6649 38.3181 10.6649C37.5013 10.6649 36.9402 11.0555 36.6917 11.6627H36.6277V10.7359H35.399V16.1904H36.6846V12.9944ZM43.9076 16.297C45.1789 16.297 46.0525 15.6755 46.2797 14.7274L45.0794 14.5924C44.9054 15.0541 44.4793 15.2955 43.9253 15.2955C43.0944 15.2955 42.5439 14.7487 42.5333 13.8147H46.333V13.4205C46.333 11.5065 45.1824 10.6649 43.8401 10.6649C42.2776 10.6649 41.2584 11.8119 41.2584 13.4951C41.2584 15.2068 42.2634 16.297 43.9076 16.297ZM42.5368 12.9482C42.5759 12.2522 43.0908 11.6663 43.8579 11.6663C44.5965 11.6663 45.0936 12.2061 45.1007 12.9482H42.5368Z" fill="white"/>
</svg>
