<svg width="61" height="25" viewBox="0 0 61 25" fill="none" xmlns="http://www.w3.org/2000/svg">
<rect width="61" height="25" rx="12.5" fill="#ECB22E"/>
<path d="M11.4031 16.1904H12.7206V13.733H14.1126C15.7923 13.733 16.6943 12.7245 16.6943 11.3254C16.6943 9.93688 15.803 8.9177 14.1304 8.9177H11.4031V16.1904ZM12.7206 12.6499V10.0186H13.928C14.9152 10.0186 15.352 10.5512 15.352 11.3254C15.352 12.0995 14.9152 12.6499 13.9351 12.6499H12.7206ZM20.1185 16.297C21.3898 16.297 22.2634 15.6755 22.4907 14.7274L21.2904 14.5924C21.1164 15.0541 20.6902 15.2955 20.1363 15.2955C19.3053 15.2955 18.7549 14.7487 18.7442 13.8147H22.5439V13.4205C22.5439 11.5065 21.3934 10.6649 20.051 10.6649C18.4885 10.6649 17.4694 11.8119 17.4694 13.4951C17.4694 15.2068 18.4743 16.297 20.1185 16.297ZM18.7478 12.9482C18.7868 12.2522 19.3017 11.6663 20.0688 11.6663C20.8074 11.6663 21.3046 12.2061 21.3117 12.9482H18.7478ZM24.917 12.9944C24.917 12.2061 25.3928 11.7515 26.0711 11.7515C26.7352 11.7515 27.1329 12.1883 27.1329 12.9163V16.1904H28.4184V12.7174C28.4219 11.4106 27.6762 10.6649 26.5505 10.6649C25.7337 10.6649 25.1727 11.0555 24.9241 11.6627H24.8602V10.7359H23.6315V16.1904H24.917V12.9944ZM31.7494 16.2863C32.6869 16.2863 33.1094 15.7288 33.3119 15.3311H33.39V16.1904H34.6542V8.9177H33.3651V11.6379H33.3119C33.1166 11.2437 32.7153 10.6649 31.7529 10.6649C30.4923 10.6649 29.5015 11.6521 29.5015 13.4703C29.5015 15.2671 30.4639 16.2863 31.7494 16.2863ZM32.108 15.2316C31.2593 15.2316 30.8119 14.4859 30.8119 13.4632C30.8119 12.4475 31.2522 11.7195 32.108 11.7195C32.9354 11.7195 33.39 12.4049 33.39 13.4632C33.39 14.5214 32.9283 15.2316 32.108 15.2316ZM36.024 16.1904H37.3096V10.7359H36.024V16.1904ZM36.6704 9.96174C37.0787 9.96174 37.4125 9.64924 37.4125 9.26571C37.4125 8.87864 37.0787 8.56614 36.6704 8.56614C36.2584 8.56614 35.9246 8.87864 35.9246 9.26571C35.9246 9.64924 36.2584 9.96174 36.6704 9.96174ZM39.917 12.9944C39.917 12.2061 40.3928 11.7515 41.0711 11.7515C41.7352 11.7515 42.1329 12.1883 42.1329 12.9163V16.1904H43.4184V12.7174C43.4219 11.4106 42.6762 10.6649 41.5505 10.6649C40.7337 10.6649 40.1727 11.0555 39.9241 11.6627H39.8602V10.7359H38.6315V16.1904H39.917V12.9944ZM47.0974 18.3495C48.5711 18.3495 49.6577 17.6748 49.6577 16.2792V10.7359H48.39V11.6379H48.319C48.1237 11.2437 47.7153 10.6649 46.7529 10.6649C45.4923 10.6649 44.5015 11.6521 44.5015 13.4454C44.5015 15.2245 45.4923 16.1123 46.7494 16.1123C47.6833 16.1123 48.1201 15.6116 48.319 15.2103H48.3829V16.2437C48.3829 17.0463 47.8502 17.3765 47.1187 17.3765C46.3445 17.3765 46.0036 17.0107 45.8474 16.6911L44.6897 16.9717C44.9241 17.7352 45.7089 18.3495 47.0974 18.3495ZM47.108 15.1038C46.2593 15.1038 45.8119 14.4433 45.8119 13.4383C45.8119 12.4475 46.2522 11.7195 47.108 11.7195C47.9354 11.7195 48.39 12.4049 48.39 13.4383C48.39 14.4788 47.9283 15.1038 47.108 15.1038Z" fill="white"/>
</svg>
