<svg width="21" height="17" viewBox="0 0 21 17" fill="none" xmlns="http://www.w3.org/2000/svg">
<path d="M0.593725 9.58847L6.98721 15.982C7.57637 16.5711 8.55831 16.5711 9.14747 15.982C9.73663 15.3928 9.73663 14.4109 9.14747 13.8217L5.37248 10.0249L19.3378 10.0249C20.1888 10.0249 20.8652 9.34844 20.8652 8.49743C20.8652 7.64642 20.1888 6.96998 19.3378 6.96998L5.37248 6.96998L9.14747 3.19498C9.73663 2.60582 9.73663 1.62389 9.14747 1.03473C8.84198 0.729239 8.44921 0.576498 8.05643 0.576498C7.66366 0.576498 7.27088 0.729239 6.96539 1.03473L0.593725 7.4064C0.310055 7.69007 0.135494 8.08284 0.135494 8.49744C0.135494 8.91203 0.288235 9.30481 0.593725 9.58848V9.58847Z" fill="black"/>
</svg>
