<svg width="41" height="41" viewBox="0 0 41 41" fill="none" xmlns="http://www.w3.org/2000/svg">
<circle cx="20.5" cy="20.5" r="20.5" fill="#EEF0F3"/>
<g clipPath="url(#clip0)">
<path fill-rule="evenodd" clip-rule="evenodd" d="M29.8288 23.9681H26.7454V13.9473C26.7454 12.6701 25.7101 11.6348 24.4329 11.6348H14.4121C13.1349 11.6348 12.0996 12.6701 12.0996 13.9473V25.5098C12.0996 27.6384 13.8252 29.3639 15.9538 29.3639H26.7454C28.874 29.3639 30.5996 27.6384 30.5996 25.5098V24.7389C30.5996 24.3132 30.2545 23.9681 29.8288 23.9681L29.8288 23.9681ZM13.6413 25.5098V13.9473C13.6413 13.5215 13.9864 13.1764 14.4121 13.1764H24.4329C24.8586 13.1764 25.2038 13.5215 25.2038 13.9473V23.9681H19.0371C18.6114 23.9681 18.2663 24.3132 18.2663 24.7389V25.5098C18.2663 26.7869 17.2309 27.8223 15.9538 27.8223C14.6766 27.8223 13.6413 26.7869 13.6413 25.5098L13.6413 25.5098ZM26.7454 27.8223H19.0178C19.5277 27.159 19.8053 26.3464 19.8079 25.5098H29.0579C29.0579 26.7869 28.0226 27.8223 26.7454 27.8223Z" fill="#11B4BF"/>
<path d="M16.1464 15.8744H23.0839C23.5097 15.8744 23.8548 15.5293 23.8548 15.1036C23.8548 14.6779 23.5097 14.3328 23.0839 14.3328H16.1464C15.7207 14.3328 15.3756 14.6779 15.3756 15.1036C15.3756 15.5293 15.7207 15.8744 16.1464 15.8744Z" fill="#11B4BF"/>
<path d="M16.1464 18.9574H23.0839C23.5097 18.9574 23.8548 18.6123 23.8548 18.1866C23.8548 17.7609 23.5097 17.4158 23.0839 17.4158H16.1464C15.7207 17.4158 15.3756 17.7609 15.3756 18.1866C15.3756 18.6123 15.7207 18.9574 16.1464 18.9574Z" fill="#11B4BF"/>
<path d="M23.0839 22.0414C23.5097 22.0414 23.8548 21.6963 23.8548 21.2706C23.8548 20.8449 23.5097 20.4998 23.0839 20.4998H16.1464C15.7207 20.4998 15.3756 20.8449 15.3756 21.2706C15.3756 21.6963 15.7207 22.0414 16.1464 22.0414H23.0839Z" fill="#11B4BF"/>
</g>
<defs>
<clipPath id="clip0">
<rect x="12.0996" y="11.6348" width="18.5" height="17.7292" fill="white"/>
</clipPath>
</defs>
</svg>
