<svg width="100%" height="100%" viewBox="0 0 89 40" fill="none" xmlns="http://www.w3.org/2000/svg" id="logo">
  <g clip-path="url(#clip0_65_2496)">
    <path d="M44.5031 36.7108L52.2884 27.0574V39.5L75.154 30.3296L78.4294 22.9099L58.8453 30.8065V28.0173L80.2346 19.2454L83.6775 11.7472L58.7647 21.8776V19.1669L85.7246 7.99814L89 0.5L56.3826 13.818C56.3826 13.818 53.5973 14.8563 52.369 16.8486L44.5031 26.5805L36.6372 16.8486C35.4089 14.8563 32.6236 13.818 32.6236 13.818L0 0.5L3.27539 7.99814L30.2415 19.1608V21.8715L5.32871 11.7472L8.77159 19.2454L30.1609 28.0173V30.8065L10.5768 22.9099L13.8522 30.3296L36.7178 39.5V27.0574L44.5031 36.7108Z" fill="currentColor"/>
  </g>
  <defs>
    <clipPath id="clip0_65_2496">
      <rect width="89" height="39" fill="white" transform="translate(0 0.5)"/>
    </clipPath>
  </defs>
</svg>
