<svg width="41" height="41" viewBox="0 0 41 41" fill="none" xmlns="http://www.w3.org/2000/svg">
<circle cx="20.5" cy="20.5" r="20.5" fill="#EEF0F3"/>
<path fill-rule="evenodd" clip-rule="evenodd" d="M14.2635 19.3957C13.0532 19.3758 12.0862 18.3818 12.0997 17.1713C12.104 17.1029 12.1183 17.0355 12.1422 16.9713L14.3242 11.3163C14.4081 11.076 14.6333 10.9138 14.8878 10.9103H17.1365C17.3246 10.9052 17.5044 10.9878 17.6231 11.1338C17.7418 11.2798 17.7859 11.4727 17.7426 11.6558L16.4273 17.2501C16.4013 18.4312 15.4448 19.3797 14.2635 19.3957V19.3957ZM13.318 17.2744C13.3521 17.7757 13.7613 18.1691 14.2635 18.1835C14.8068 18.167 15.2348 17.7147 15.2212 17.1713C15.2152 17.1271 15.2152 17.0822 15.2212 17.038L16.3728 12.1225H15.306L13.318 17.2744Z" fill="#11B4BF"/>
<path fill-rule="evenodd" clip-rule="evenodd" d="M17.3849 19.3957C16.1731 19.3791 15.2043 18.3831 15.2211 17.1713C15.2151 17.1271 15.2151 17.0822 15.2211 17.038L16.5424 11.377C16.6084 11.0974 16.8614 10.9026 17.1485 10.9103H19.3911C19.5591 10.9108 19.7193 10.981 19.8336 11.1042C19.9504 11.228 20.0097 11.3951 19.9972 11.5648L19.5608 17.2198C19.5575 18.4202 18.5852 19.3924 17.3849 19.3957L17.3849 19.3957ZM16.4333 17.2319C16.4501 17.7575 16.8897 18.17 17.4152 18.1532C17.9408 18.1365 18.3532 17.6969 18.3365 17.1713L18.7244 12.1225H17.6152L16.4333 17.2319Z" fill="#11B4BF"/>
<path fill-rule="evenodd" clip-rule="evenodd" d="M20.5006 19.3955C19.2888 19.3789 18.32 18.3829 18.3368 17.1711L18.7732 11.4677C18.7986 11.152 19.0626 10.909 19.3793 10.91H21.6219C21.9386 10.909 22.2027 11.152 22.228 11.4677L22.6644 17.1287C22.6807 17.717 22.4613 18.2873 22.0549 18.713C21.6486 19.1387 21.089 19.3844 20.5006 19.3955L20.5006 19.3955ZM19.9369 12.1223L19.549 17.2196C19.5522 17.7458 19.9745 18.1735 20.5006 18.1833C21.043 18.1668 21.4692 17.7135 21.4522 17.1711L21.0643 12.1223H19.9369Z" fill="#11B4BF"/>
<path fill-rule="evenodd" clip-rule="evenodd" d="M23.6155 19.3957C22.4036 19.3791 21.4348 18.3831 21.4517 17.1713L21.0153 11.5648C21.0027 11.3951 21.0621 11.228 21.1789 11.1042C21.2931 10.981 21.4534 10.9108 21.6214 10.9103H23.864C24.1511 10.9026 24.4041 11.0974 24.4701 11.377L25.7793 17.038C25.7853 17.0822 25.7853 17.1271 25.7793 17.1713C25.7961 18.3831 24.8273 19.3791 23.6155 19.3957L23.6155 19.3957ZM22.276 12.1225L22.6639 17.1289C22.649 17.3952 22.7412 17.6565 22.9199 17.8545C23.0986 18.0526 23.349 18.171 23.6155 18.1835C24.1356 18.1708 24.5543 17.7521 24.567 17.2319L23.3851 12.1225H22.276Z" fill="#11B4BF"/>
<path fill-rule="evenodd" clip-rule="evenodd" d="M26.7368 19.3957C25.5555 19.3797 24.599 18.4312 24.573 17.2501L23.276 11.6558C23.2326 11.4727 23.2768 11.2798 23.3955 11.1338C23.5142 10.9878 23.694 10.9052 23.8821 10.9103H26.1307C26.3806 10.911 26.6044 11.065 26.6944 11.2982L28.8582 16.9713C28.8839 17.0413 28.8982 17.115 28.9006 17.1895C28.9041 18.3929 27.9401 19.3759 26.7368 19.3957L26.7368 19.3957ZM24.6276 12.1225L25.7671 17.038C25.773 17.0822 25.773 17.1271 25.7671 17.1713C25.7606 17.4344 25.8593 17.6892 26.0413 17.8792C26.2234 18.0692 26.4737 18.1788 26.7368 18.1835C27.2391 18.1691 27.6482 17.7756 27.6823 17.2744L25.6943 12.1225L24.6276 12.1225Z" fill="#11B4BF"/>
<path d="M26.7374 29.0929H14.2637C13.929 29.0929 13.6576 28.8215 13.6576 28.4868V18.7891C13.6576 18.4544 13.929 18.183 14.2637 18.183C14.5984 18.183 14.8698 18.4543 14.8698 18.7891V27.8807H26.1313V18.7891C26.1313 18.4544 26.4026 18.183 26.7374 18.183C27.0721 18.183 27.3435 18.4543 27.3435 18.7891V28.4868C27.3435 28.8215 27.0721 29.0929 26.7374 29.0929Z" fill="#11B4BF"/>
<path fill-rule="evenodd" clip-rule="evenodd" d="M22.8399 29.0933H18.1607C17.826 29.0933 17.5546 28.8219 17.5546 28.4871V22.8322C17.5546 22.4974 17.826 22.2261 18.1607 22.2261H22.8399C23.1746 22.2261 23.446 22.4974 23.446 22.8322V28.4871C23.446 28.8219 23.1746 29.0933 22.8399 29.0933ZM18.7668 27.881H22.2337V23.4383H18.7668V27.881Z" fill="#11B4BF"/>
</svg>
