<svg width="168" height="60" viewBox="0 0 168 60" fill="none" xmlns="http://www.w3.org/2000/svg">
<path d="M25.6999 7.43413C25.691 8.35984 26.4231 9.09755 27.3479 9.09558C28.2732 9.09361 29.0019 8.35984 28.9994 7.43413C28.9969 6.51681 28.2574 5.79587 27.3228 5.79982C26.4226 5.80377 25.7082 6.52273 25.6999 7.43413Z" fill="white"/>
<path d="M37.4313 10.6608C37.4305 12.4558 35.9614 13.9235 34.1682 13.92C32.3792 13.9166 30.9071 12.4422 30.9051 10.6524C30.9031 8.84885 32.3778 7.38084 34.1894 7.3838C35.9808 7.38626 37.4318 8.8528 37.4313 10.6608Z" fill="white"/>
<path d="M45.8336 44.7711C44.0101 44.7696 42.573 43.3258 42.5749 41.4976C42.5769 39.7029 44.0486 38.2314 45.8375 38.2354C47.6151 38.2393 49.0956 39.73 49.0942 41.5143C49.0927 43.3149 47.6329 44.7726 45.8336 44.7711Z" fill="white"/>
<path d="M50.489 17.2824C52.2917 17.2844 53.7432 15.8297 53.7432 14.0217C53.7432 12.2122 52.2883 10.7447 50.4954 10.7462C48.7163 10.7477 47.2205 12.2413 47.2205 14.0168C47.2205 15.807 48.6956 17.2804 50.489 17.2824Z" fill="white"/>
<path d="M26.1684 18.7312C24.4874 18.7712 22.9773 17.3273 22.9053 15.6738C22.8196 13.7069 24.3602 12.2774 26.0063 12.2063C27.7411 12.1308 29.397 13.4631 29.4236 15.4379C29.4487 17.3066 27.9431 18.7268 26.1684 18.7312Z" fill="white"/>
<path d="M49.679 43.121C49.6765 44.9098 51.1526 46.3901 52.9406 46.3901C54.731 46.3906 56.2017 44.9177 56.2017 43.1235C56.2017 41.3244 54.7379 39.8549 52.944 39.8539C51.1575 39.8529 49.6814 41.3298 49.679 43.121Z" fill="white"/>
<path d="M52.8071 29.2999C52.8071 31.1065 51.3546 32.5686 49.5588 32.57C47.7698 32.5715 46.2785 31.0714 46.2859 29.2787C46.2932 27.5146 47.7812 26.0377 49.5553 26.0338C51.3482 26.0303 52.8071 27.4954 52.8071 29.2999Z" fill="white"/>
<path d="M27.3607 46.2742C25.554 46.2717 24.0932 47.7397 24.0937 49.5561C24.0942 51.3434 25.5521 52.806 27.3351 52.8084C29.1344 52.8109 30.6297 51.3202 30.6199 49.5329C30.6105 47.7624 29.1241 46.2766 27.3607 46.2742Z" fill="white"/>
<path d="M16.0969 37.3166C14.3079 37.3057 12.8501 35.8184 12.8693 34.0242C12.8885 32.2439 14.3735 30.768 16.1324 30.7818C17.9474 30.7961 19.3999 32.2819 19.3836 34.1086C19.3678 35.8836 17.8888 37.3274 16.0969 37.3166Z" fill="white"/>
<path d="M39.7366 51.1416C39.7341 49.3493 38.2575 47.8808 36.4656 47.8877C34.6422 47.8946 33.1991 49.3582 33.2134 51.2013C33.2277 53.0423 34.7978 54.4294 36.5006 54.3993C38.2881 54.3677 39.739 52.9293 39.7366 51.1416Z" fill="white"/>
<path d="M60.9886 27.6834C60.9891 29.4766 59.5401 30.9367 57.7581 30.9392C55.9667 30.9416 54.4935 29.4687 54.4945 27.677C54.4955 25.8803 55.9622 24.4108 57.7536 24.4108C59.5495 24.4108 60.9881 25.866 60.9886 27.6834Z" fill="white"/>
<path d="M13.8177 22.8264C12.0263 22.8293 10.5906 24.2746 10.5886 26.0777C10.5867 27.8778 12.0302 29.3522 13.7985 29.3562C15.5998 29.3611 17.0833 27.8832 17.0818 26.0846C17.0808 24.2914 15.6101 22.8234 13.8177 22.8264Z" fill="white"/>
<path d="M44.0047 49.9158C44.0067 48.7325 44.9536 47.7935 46.141 47.7969C47.3082 47.7999 48.2738 48.772 48.2679 49.938C48.262 51.0952 47.2988 52.0599 46.1464 52.0623C44.961 52.0648 44.0027 51.1031 44.0047 49.9158Z" fill="white"/>
<path d="M38.0008 44.7361C37.9969 45.6322 38.7428 46.3822 39.6444 46.3896C40.5564 46.397 41.3166 45.6494 41.3191 44.7415C41.3215 43.833 40.5677 43.0726 39.6626 43.0697C38.7596 43.0667 38.0048 43.8237 38.0008 44.7361Z" fill="white"/>
<path d="M34.0775 44.7287C34.0775 45.6396 33.3232 46.3891 32.4113 46.3847C31.5141 46.3803 30.7701 45.6342 30.7622 44.7316C30.7544 43.8291 31.517 43.0628 32.4206 43.0648C33.3336 43.0667 34.0775 43.8138 34.0775 44.7287Z" fill="white"/>
<path d="M42.6272 12.7234C43.5357 12.7338 44.2821 11.9813 44.2806 11.0551C44.2791 10.1476 43.5391 9.40646 42.635 9.40646C41.7186 9.40646 40.9697 10.156 40.9722 11.0704C40.9747 11.966 41.7221 12.7131 42.6272 12.7234Z" fill="white"/>
<path d="M23.3951 36.834C24.3001 36.8354 25.0554 37.5889 25.0441 38.4786C25.0323 39.4034 24.2918 40.1342 23.3714 40.1297C22.4624 40.1248 21.7303 39.3886 21.7308 38.4796C21.7313 37.5509 22.458 36.8325 23.3951 36.834Z" fill="white"/>
<path d="M20.8937 43.9623C20.8922 44.8841 21.6066 45.6045 22.527 45.61C23.4552 45.6154 24.1932 44.8895 24.1972 43.9673C24.2011 43.0702 23.47 42.3226 22.5821 42.3162C21.6367 42.3093 20.8952 43.0322 20.8937 43.9623Z" fill="white"/>
<path d="M56.653 35.3891C56.6545 36.3025 55.9273 37.0501 55.0306 37.0565C54.1107 37.0629 53.3648 36.306 53.3677 35.3689C53.3712 34.4728 54.122 33.7306 55.0261 33.7306C55.9297 33.7306 56.6515 34.4669 56.653 35.3891Z" fill="white"/>
<path d="M41.2703 18.109C42.1689 18.109 42.9021 17.3634 42.9026 16.449C42.903 15.5218 42.1709 14.7866 41.2486 14.7895C40.3485 14.792 39.6149 15.5346 39.6119 16.446C39.6089 17.3639 40.3519 18.109 41.2703 18.109Z" fill="white"/>
<path d="M45.8276 18.0038C46.7268 17.9999 47.4757 18.7425 47.4821 19.6451C47.4885 20.5584 46.7391 21.3174 45.8311 21.3169C44.9374 21.3159 44.1658 20.5545 44.1663 19.6737C44.1663 18.7647 44.9201 18.0073 45.8276 18.0038Z" fill="white"/>
<path d="M22.9911 11.6975C22.9935 12.6213 22.252 13.3694 21.3396 13.3634C20.4306 13.3575 19.7078 12.6247 19.7078 11.7084C19.7078 10.7812 20.4192 10.0514 21.3278 10.047C22.2491 10.042 22.9886 10.7758 22.9911 11.6975Z" fill="white"/>
<path d="M21.3435 25.3607C20.4463 25.3578 19.7078 26.1068 19.7093 27.0187C19.7108 27.9262 20.4528 28.6728 21.3504 28.6698C22.2658 28.6673 23.0088 27.9163 23.0024 27.0005C22.9965 26.1004 22.2511 25.3642 21.3435 25.3607Z" fill="white"/>
<path d="M21.3603 21.9258C20.4385 21.9283 19.7122 21.2108 19.7093 20.2954C19.7063 19.3796 20.4316 18.6384 21.3361 18.6315C22.2427 18.6251 23.0167 19.388 23.0127 20.2851C23.0088 21.1935 22.2737 21.9233 21.3603 21.9258Z" fill="white"/>
<path d="M52.9504 23.6953C53.8578 23.6933 54.581 22.9603 54.5812 22.0437C54.5807 21.1269 53.8476 20.3857 52.948 20.3927C52.0331 20.3991 51.3029 21.1269 51.3004 22.0349C51.2975 22.9581 52.0326 23.6973 52.9504 23.6953Z" fill="white"/>
<path d="M16.9428 41.651C16.9409 42.5822 16.2344 43.2922 15.3101 43.2927C14.3956 43.2927 13.6699 42.5708 13.663 41.6545C13.6561 40.7391 14.4006 39.9935 15.3209 39.9945C16.2358 39.9955 16.9448 40.7194 16.9428 41.651Z" fill="white"/>
<path d="M17.0704 16.4579C17.068 15.5317 16.3319 14.7885 15.4185 14.7895C14.5173 14.7905 13.7946 15.5292 13.7941 16.45C13.7931 17.3643 14.5237 18.109 15.4224 18.1095C16.3191 18.1104 17.0729 17.3545 17.0704 16.4579Z" fill="white"/>
<path d="M73.7886 21.2881V38.4241H85.5246V35.9041H76.7406V21.2881H73.7886Z" fill="white"/>
<path d="M145.598 38.4241V26.0161H148.31V38.4241H145.598Z" fill="white"/>
<path d="M145.43 24.0721V21.2881H148.478V24.0721H145.43Z" fill="white"/>
<path d="M153.859 26.0161V28.0801H153.931C154.795 26.4241 156.187 25.7041 157.939 25.7041C161.131 25.7041 162.211 27.5521 162.211 30.1921V38.4241H159.499V30.3361C159.499 28.9201 158.707 27.9841 157.267 27.9841C155.083 27.9841 153.979 29.6161 153.979 31.7281V38.4241H151.267V26.0161H153.859Z" fill="white"/>
<path d="M143.616 28.5361V26.0161H142.488C140.928 26.0161 139.656 26.9521 138.792 28.5601H138.72V26.0161H136.056V38.4241H138.792V32.5441C138.792 29.8321 140.088 28.5361 142.104 28.5361H143.616Z" fill="white"/>
<path fill-rule="evenodd" clip-rule="evenodd" d="M127.889 38.7121C124.097 38.7121 121.817 36.0241 121.817 32.2081C121.817 28.3681 124.049 25.7041 127.769 25.7041C131.513 25.7041 133.673 28.2721 133.673 32.2081C133.673 32.3761 133.673 32.7601 133.649 32.9761H124.553C124.769 35.1361 125.897 36.4801 127.889 36.4801C129.329 36.4801 130.385 35.7121 130.841 34.3921H133.529C132.905 37.1761 130.769 38.7121 127.889 38.7121ZM124.601 30.9601H130.889C130.625 28.9441 129.449 27.8641 127.793 27.8641C126.089 27.8641 124.937 29.0641 124.601 30.9601Z" fill="white"/>
<path d="M101.346 26.0161V38.4241H104.058V31.2241C104.058 29.9761 104.898 27.9841 106.962 27.9841C108.57 27.9841 109.098 29.0401 109.098 30.5041V38.4241H111.81V31.2241C111.81 29.3281 112.89 27.9841 114.666 27.9841C116.37 27.9841 116.826 29.0881 116.826 30.5041V38.4241H119.538V29.5681C119.538 26.9761 118.074 25.7041 115.41 25.7041C113.802 25.7041 112.386 26.4961 111.522 28.0321C111.018 26.4481 109.65 25.7041 107.922 25.7041C106.218 25.7041 104.874 26.4241 104.01 27.9361H103.938V26.0161H101.346Z" fill="white"/>
<path d="M91.8128 38.7121C88.6208 38.7121 87.5408 36.8401 87.5408 34.2001V26.0161H90.2528V34.0561C90.2528 35.4721 91.0688 36.4081 92.5088 36.4081C94.6928 36.4081 95.7728 34.7761 95.7728 32.6881V26.0161H98.4848V38.4241H95.8928V36.3121H95.8448C94.9808 37.9681 93.6128 38.7121 91.8128 38.7121Z" fill="white"/>
</svg>
