<?xml version="1.0" standalone="no"?>
<!DOCTYPE svg PUBLIC "-//W3C//DTD SVG 20010904//EN"
 "http://www.w3.org/TR/2001/REC-SVG-20010904/DTD/svg10.dtd">
<svg version="1.0" xmlns="http://www.w3.org/2000/svg"
 width="700.000000pt" height="700.000000pt" viewBox="0 0 700.000000 700.000000"
 preserveAspectRatio="xMidYMid meet">
<metadata>
Created by potrace 1.14, written by Peter Selinger 2001-2017
</metadata>
<g transform="translate(0.000000,700.000000) scale(0.100000,-0.100000)"
fill="#000000" stroke="none">
<path d="M2340 6574 c-126 -55 -163 -218 -73 -323 44 -52 80 -71 141 -75 197
-13 304 227 160 361 -54 51 -157 68 -228 37z"/>
<path d="M3185 6375 c-194 -58 -316 -229 -302 -427 10 -151 96 -277 235 -346
72 -35 80 -37 176 -37 93 0 107 3 167 31 346 164 321 652 -40 774 -70 23 -168
26 -236 5z"/>
<path d="M4326 6128 c-88 -19 -153 -93 -163 -189 -9 -88 38 -167 124 -206 180
-82 357 105 268 284 -43 85 -136 131 -229 111z"/>
<path d="M1594 6043 c-32 -6 -99 -67 -117 -106 -51 -106 -9 -235 90 -282 172
-82 347 72 291 257 -13 45 -74 108 -120 125 -32 11 -102 14 -144 6z"/>
<path d="M5378 5965 c-2 -2 -29 -5 -61 -8 -77 -7 -170 -53 -235 -117 -163
-161 -167 -420 -8 -580 231 -234 618 -129 698 190 50 197 -63 414 -252 484
-43 16 -136 36 -142 31z"/>
<path d="M2193 5769 c-143 -27 -284 -163 -321 -309 -47 -188 54 -392 238 -479
49 -23 67 -26 165 -26 103 0 114 2 176 32 154 76 242 219 235 385 -4 90 -16
133 -51 195 -50 87 -111 139 -215 182 -59 25 -155 34 -227 20z"/>
<path d="M842 5439 c-19 -5 -53 -29 -76 -53 -98 -98 -81 -252 36 -327 140 -90
326 25 312 194 -4 50 -31 112 -60 138 -53 47 -147 68 -212 48z"/>
<path d="M4165 5446 c-5 -3 -22 -7 -38 -10 -37 -9 -105 -71 -123 -115 -35 -83
-7 -195 62 -247 108 -83 254 -51 315 68 52 102 10 230 -93 284 -28 15 -105 27
-123 20z"/>
<path d="M4698 5023 c-140 -59 -173 -251 -60 -351 115 -100 296 -49 338 96 18
62 15 102 -14 159 -48 93 -167 137 -264 96z"/>
<path d="M1595 4948 c-87 -30 -138 -106 -138 -203 0 -47 5 -69 25 -100 34 -54
54 -70 113 -90 169 -60 330 111 261 276 -40 96 -163 151 -261 117z"/>
<path d="M5634 4728 c-50 -11 -119 -68 -139 -115 -34 -81 -23 -159 32 -223 99
-116 281 -91 344 47 73 160 -64 328 -237 291z"/>
<path d="M609 4413 c-261 -67 -388 -345 -270 -588 104 -212 374 -294 573 -172
115 70 197 200 203 323 4 87 -8 153 -41 219 -86 170 -287 264 -465 218z"/>
<path d="M6193 4210 c-178 -49 -301 -201 -309 -382 -10 -244 189 -444 432
-432 277 13 461 297 363 558 -20 54 -74 136 -108 164 -111 92 -253 126 -378
92z"/>
<path d="M1640 4100 c-25 -3 -59 -14 -77 -23 -64 -34 -115 -123 -108 -188 1
-13 3 -33 4 -45 2 -34 57 -108 98 -131 142 -80 312 18 313 180 0 62 -19 105
-65 150 -46 44 -105 65 -165 57z"/>
<path d="M5155 4004 c-272 -65 -403 -384 -254 -619 148 -234 467 -265 655 -63
119 127 143 323 58 478 -51 94 -160 180 -259 205 -55 13 -139 13 -200 -1z"/>
<path d="M923 3404 c-247 -51 -395 -301 -317 -536 54 -164 193 -272 364 -283
241 -16 440 172 440 416 0 206 -172 396 -369 407 -25 2 -47 4 -50 6 -3 2 -34
-3 -68 -10z"/>
<path d="M5882 3027 c-168 -61 -192 -291 -40 -381 77 -45 166 -39 232 16 119
98 100 283 -36 354 -39 20 -114 25 -156 11z"/>
<path d="M1838 2627 c-163 -76 -169 -300 -9 -380 93 -46 204 -17 265 71 24 34
31 55 34 105 4 77 -23 134 -86 180 -37 27 -53 32 -110 34 -38 1 -79 -3 -94
-10z"/>
<path d="M4718 2459 c-331 -47 -470 -464 -234 -702 185 -186 490 -156 637 63
198 294 -51 689 -403 639z"/>
<path d="M5580 2243 c-117 -30 -211 -106 -266 -217 -136 -276 61 -595 368
-596 268 0 463 248 402 512 -36 155 -166 278 -325 308 -64 12 -111 11 -179 -7z"/>
<path d="M806 2220 c-80 -41 -119 -104 -119 -193 0 -159 175 -256 315 -174 66
39 103 114 95 196 -5 63 -24 100 -72 144 -53 48 -154 61 -219 27z"/>
<path d="M1770 1940 c-126 -36 -190 -149 -154 -269 34 -114 166 -174 279 -126
144 59 172 250 54 350 -18 15 -42 30 -53 35 -34 13 -99 18 -126 10z"/>
<path d="M3000 1837 c-71 -23 -140 -120 -140 -198 0 -112 98 -208 213 -209 53
0 121 29 150 64 144 169 -13 410 -223 343z"/>
<path d="M3893 1820 c-54 -28 -99 -93 -108 -153 -19 -116 82 -237 197 -237 67
0 115 18 154 57 92 91 87 226 -10 311 -66 57 -154 66 -233 22z"/>
<path d="M2305 1423 c-117 -42 -206 -120 -252 -219 -32 -70 -38 -101 -37 -194
4 -346 426 -526 686 -292 219 197 168 547 -99 679 -66 32 -85 37 -161 40 -65
3 -100 -1 -137 -14z"/>
<path d="M4735 1237 c-78 -26 -164 -115 -180 -186 -30 -137 30 -263 150 -320
57 -27 155 -30 209 -7 175 73 228 301 102 438 -61 65 -200 102 -281 75z"/>
<path d="M3495 1225 c-182 -42 -309 -196 -320 -387 -14 -237 189 -440 425
-425 92 6 110 10 176 42 194 95 278 335 188 534 -82 181 -278 279 -469 236z"/>
</g>
</svg>
