<svg width="1139" height="512" viewBox="0 0 1139 512" fill="none" xmlns="http://www.w3.org/2000/svg">
<path d="M1092.65 99.4037L1138.56 0.219971L715.319 179.014C697.326 186.609 681.576 198.694 669.572 214.111L569.525 342.589L469.465 214.111C457.46 198.707 441.711 186.623 423.717 179.014L0.48999 0.219971L46.3968 99.4037L389.35 244.282V281.411L67.7501 145.55L113.657 244.733L389.35 361.193V398.323L135.023 290.879L180.944 390.063L389.35 478.118L470.049 512.207V348.193L569.525 475.901L669.014 348.193V512.22L749.713 478.132L958.12 390.076L1004.04 290.892L749.713 398.336V361.207L1025.41 244.747L1071.31 145.563L749.7 281.411V244.282L1092.65 99.4037Z" fill="#6ee7b7"/>
</svg>
